<?xml version="1.0" encoding="utf-8"?>
<!-- Generator: Adobe Illustrator 19.0.0, SVG Export Plug-In . SVG Version: 6.00 Build 0)  -->
<svg version="1.1" id="Layer_1" xmlns="http://www.w3.org/2000/svg" xmlns:xlink="http://www.w3.org/1999/xlink" x="0px" y="0px"
	 viewBox="0 0 16 7.3" style="enable-background:new 0 0 16 7.3;" xml:space="preserve">
<style type="text/css">
	.st0{fill:#FAD7E6;}
	.st1{fill:#E1EAF7;}
</style>
<g id="XMLID_42_">
	<path id="XMLID_55_" class="st0" d="M1.8,1.9c0-0.1-0.1-0.1-0.2-0.1c-0.1,0-0.1,0-0.2,0.1c-0.1,0-0.1,0.1-0.1,0.1c0,0,0,0.1,0,0.1
		l0.7,1.3l0.4-0.2L1.8,1.9z"/>
	<path id="XMLID_52_" class="st0" d="M5,2C5,2,5,2,5,1.9c0-0.1,0-0.1-0.1-0.1c-0.1,0-0.1-0.1-0.2-0.1c-0.1,0-0.1,0-0.2,0.1L3.9,3.2
		C4,3.3,4.1,3.4,4.2,3.5L5,2z"/>
	<path id="XMLID_53_" class="st1" d="M3.9,3.2L3.2,4.5L2.5,3.2L2.1,3.4L2.9,5c0,0,0,0,0,0.1v1.9C2.9,7,3,7,3,7c0,0,0.1,0.1,0.2,0.1
		c0.1,0,0.1,0,0.2-0.1c0,0,0.1-0.1,0.1-0.1V5c0,0,0,0,0-0.1l0.8-1.5C4.1,3.4,4,3.3,3.9,3.2z"/>
	<path id="XMLID_45_" class="st1" d="M5.1,5.3c0-0.1,0-0.1,0.1-0.2c0,0,0.1-0.1,0.1-0.1h1.9c0,0,0.1,0,0.1,0.1c0,0,0.1,0.1,0.1,0.2
		c0,0.1,0,0.1-0.1,0.1c0,0-0.1,0.1-0.1,0.1H5.3C5.1,5.5,5.1,5.5,5.1,5.3z"/>
	<path id="XMLID_47_" class="st1" d="M8.3,6.9v-5c0-0.1,0-0.1,0.1-0.1c0,0,0.1,0,0.2,0h2.6c0.1,0,0.1,0,0.1,0.1c0,0,0,0.1,0,0.2
		c0,0.1,0,0.1,0,0.2c0,0-0.1,0.1-0.1,0.1H8.8v2H10c0.1,0,0.1,0,0.1,0.1c0,0,0,0.1,0,0.2c0,0.1-0.1,0.2-0.2,0.2H8.8v2.3
		C8.8,7,8.8,7,8.7,7c0,0-0.1,0-0.2,0C8.4,7.1,8.3,7,8.3,6.9z"/>
	<path id="XMLID_59_" class="st0" d="M14.6,0.9c-0.1-0.1-0.1-0.1-0.2-0.1c-0.1,0-0.2,0-0.2,0.1c-0.1,0.1-0.1,0.1-0.1,0.2
		c0,0.1,0,0.2,0.1,0.2c0.1,0.1,0.1,0.1,0.2,0.1c0.1,0,0.2,0,0.2-0.1c0.1-0.1,0.1-0.1,0.1-0.2C14.7,1.1,14.7,1,14.6,0.9z"/>
	<path id="XMLID_60_" class="st1" d="M12.3,3.7c0,0-0.1-0.1-0.2-0.1c-0.1,0-0.1,0-0.2,0.1c0,0-0.1,0.1-0.1,0.1v3.1
		c0,0,0,0.1,0.1,0.1c0,0,0.1,0.1,0.2,0.1c0.1,0,0.1,0,0.2-0.1c0,0,0.1-0.1,0.1-0.1V3.8C12.3,3.7,12.3,3.7,12.3,3.7z"/>
</g>
</svg>
